Coordinates
version=1
nRows=32
nColumns=12
inDegrees=yes

Units are S.I. units (second, meters, Newtons, ...)
Angles are in degrees

endheader
time	SC_y	SC_z	SC_x	AC_y	AC_z	AC_x	GH_y	GH_z	GH_yy	EL_x	PS_y
       0.0              -40.63          20.28            3.1          56.61         -10.21         -18.64          89.91         -9.542         -160.8          38.91          61.57
   0.04751              -40.63          20.28          3.105          56.61          -10.2         -18.64          89.87         -9.537         -160.7          38.92          61.58
   0.09502              -40.63          20.29           3.11          56.61          -10.2         -18.64          89.84         -9.532         -160.7          38.93          61.59
    0.1425              -40.63          20.29          3.116           56.6          -10.2         -18.64           89.8         -9.527         -160.7          38.94           61.6
      0.19              -40.63          20.29          3.122           56.6          -10.2         -18.64          89.76         -9.521         -160.7          38.96          61.61
    0.2375              -40.63          20.29          3.128          56.59         -10.19         -18.64          89.72         -9.515         -160.6          38.97          61.63
     0.285              -40.63          20.29          3.135          56.59         -10.19         -18.64          89.68         -9.508         -160.6          38.98          61.64
    0.3326              -40.63          20.29          3.142          56.58         -10.19         -18.64          89.63         -9.501         -160.6           39.0          61.66
    0.3801              -40.63          20.29           3.15          56.57         -10.18         -18.64          89.58         -9.494         -160.5          39.01          61.67
    0.4276              -40.64           20.3          3.158          56.57         -10.18         -18.64          89.52         -9.486         -160.5          39.03          61.69
    0.4751              -40.64           20.3          3.167          56.56         -10.17         -18.64          89.46         -9.477         -160.5          39.05          61.71
    0.5226              -40.64           20.3          3.176          56.55         -10.17         -18.64           89.4         -9.468         -160.4          39.07          61.73
    0.5701              -40.64           20.3          3.186          56.55         -10.16         -18.64          89.33         -9.458         -160.4          39.09          61.75
    0.6176              -40.64           20.3          3.197          56.54         -10.16         -18.63          89.25         -9.447         -160.3          39.11          61.77
    0.6651              -40.64          20.31          3.209          56.53         -10.15         -18.63          89.17         -9.435         -160.3          39.14           61.8
    0.7126              -40.64          20.31          3.222          56.52         -10.14         -18.63          89.09         -9.422         -160.2          39.16          61.83
    0.7601              -40.65          20.31          3.237          56.51         -10.14         -18.63          88.99         -9.408         -160.1          39.19          61.86
    0.8076              -40.65          20.32          3.252           56.5         -10.13         -18.63          88.89         -9.393         -160.1          39.23          61.89
    0.8551              -40.65          20.32          3.269          56.48         -10.12         -18.63          88.77         -9.377         -160.0          39.26          61.93
    0.9026              -40.65          20.32          3.287          56.47         -10.11         -18.63          88.65         -9.359         -159.9           39.3          61.96
    0.9502              -40.66          20.33          3.307          56.45          -10.1         -18.62          88.52         -9.339         -159.8          39.34          62.01
    0.9977              -40.66          20.33           3.33          56.43         -10.09         -18.62          88.37         -9.317         -159.7          39.39          62.05
     1.045              -40.66          20.34          3.354          56.42         -10.08         -18.62           88.2         -9.293         -159.6          39.44          62.11
     1.093              -40.67          20.34          3.382          56.39         -10.06         -18.62          88.02         -9.267         -159.5          39.49          62.16
      1.14              -40.67          20.35          3.412          56.37         -10.05         -18.61          87.81         -9.237         -159.4          39.56          62.23
     1.188              -40.68          20.36          3.446          56.34         -10.03         -18.61          87.59         -9.204         -159.2          39.63           62.3
     1.235              -40.68          20.36          3.483          56.32         -10.01         -18.61          87.33         -9.167         -159.0          39.71          62.38
     1.283              -40.69          20.37          3.526          56.28         -9.989          -18.6          87.05         -9.125         -158.8          39.79          62.47
      1.33               -40.7          20.38          3.574          56.25         -9.964          -18.6          86.73         -9.078         -158.6          39.89          62.57
     1.378               -40.7           20.4          3.629           56.2         -9.937         -18.59          86.36         -9.025         -158.4          40.01          62.69
     1.425              -40.71          20.41          3.691          56.15         -9.905         -18.59          85.94         -8.964         -158.1          40.14          62.82
     1.473              -40.72          20.42          3.763           56.1         -9.868         -18.58          85.46         -8.894         -157.8          40.29          62.97
